#!OML:ASF F:\VICON\USERDATA\INSTALL\rory3\rory3.ASF
:FULLY-SPECIFIED
:DEGREES
946
root -2.53403 14.7054 -34.1556 -321.718 47.1328 19.9181
lowerback -19.5464 -10.8428 -0.138042
upperback -13.2187 -13.7906 -0.218867
thorax -3.7553 -6.85721 -2.302
lowerneck -4.56043 -6.72804 -8.23279
upperneck 20.4603 -9.07851 3.96171
head 7.60363 -4.62061 1.91147
rclavicle -7.73272e-014 -6.04305e-014
rhumerus -59.6054 -43.7682 -10.2335
rradius 18.7458
rwrist 7.62222
rhand -27.4892 26.8809
rfingers 7.12502
rthumb -0.892585 -3.09702
lclavicle -7.73272e-014 -6.04305e-014
lhumerus -5.64274 -3.42236 79.9031
lradius 37.8048
lwrist -28.0512
lhand -17.8227 6.45063
lfingers 7.12502
lthumb 8.44143 36.2619
rfemur -93.9532 -36.9379 401.388
rtibia 65.4514
rfoot 141.705 143.663
rtoes 38.1461
lfemur -16.5546 -11.9081 -28.5735
ltibia 34.1002
lfoot -43.0795 19.5398
ltoes -21.6476
947
root -2.52626 14.7116 -34.1577 -321.915 47.1661 19.8688
lowerback -19.4727 -10.8993 -0.259854
upperback -12.9442 -13.8585 0.0299124
thorax -3.38766 -6.8728 -2.02515
lowerneck -5.4357 -6.91749 -8.30824
upperneck 20.4987 -9.22906 3.77998
head 7.77928 -4.69951 1.81641
rclavicle -4.09496e-014 -2.14687e-014
rhumerus -60.0342 -44.9613 -10.626
rradius 18.5151
rwrist 8.40455
rhand -27.2635 26.169
rfingers 7.12502
rthumb -0.674555 -3.80967
lclavicle -4.09496e-014 -2.14687e-014
lhumerus -6.9224 -1.73137 80.8184
lradius 36.4694
lwrist -28.8847
lhand -16.4462 6.37449
lfingers 7.12502
lthumb 9.7697 36.1279
rfemur -93.6495 -37.0498 401.242
rtibia 65.4219
rfoot 141.162 144.107
rtoes 38.7627
lfemur -16.5128 -11.9047 -28.5987
ltibia 34.4213
lfoot -43.3012 19.4944
ltoes -21.544
948
root -2.51531 14.7376 -34.1808 -321.502 47.2106 19.9001
lowerback -19.6796 -10.5929 0.0546528
upperback -13.3656 -13.4787 -0.353372
thorax -3.92065 -6.71611 -2.49255
lowerneck -3.40406 -7.26306 -7.73586
upperneck 19.8371 -9.90264 3.77148
head 7.21245 -5.01231 1.74553
rclavicle 1.92821e-014 -3.18055e-015
rhumerus -62.4076 -44.7034 -10.0172
rradius 18.4588
rwrist 8.62922
rhand -27.0267 25.5853
rfingers 7.12502
rthumb -0.445851 -4.39401
lclavicle 1.92821e-014 -3.18055e-015
lhumerus -9.3939 -1.88316 81.5358
lradius 35.4296
lwrist -29.4321
lhand -15.3104 7.9238
lfingers 7.12502
lthumb 10.8654 37.6227
rfemur -94.0717 -37.0338 401.51
rtibia 65.2858
rfoot 140.558 144.887
rtoes 40.104
lfemur -17.1191 -12.0779 -28.6095
ltibia 34.6469
lfoot -43.5131 19.2418
ltoes -20.7754
949
root -2.50583 14.7079 -34.21 -321.02 47.3088 19.9894
lowerback -20.0115 -10.6001 0.305745
upperback -13.4298 -13.5121 -0.231462
thorax -3.85833 -6.74441 -2.55
lowerneck -3.33539 -7.39923 -7.92229
upperneck 19.7187 -10.1048 3.93452
head 7.19343 -5.11071 1.81299
rclavicle -2.93207e-014 9.54166e-015
rhumerus -62.7508 -45.2408 -10.9213
rradius 18.3509
rwrist 8.56653
rhand -26.9963 25.1255
rfingers 7.12502
rthumb -0.416505 -4.85382
lclavicle -2.93207e-014 9.54166e-015
lhumerus -10.9815 -1.23828 82.2072
lradius 34.3348
lwrist -30.1089
lhand -13.9057 9.75895
lfingers 7.12502
lthumb 12.22 39.382
rfemur -94.7245 -36.9234 401.786
rtibia 65.0925
rfoot 141.247 144.214
rtoes 39.2813
lfemur -17.7292 -12.2986 -28.6162
ltibia 34.9252
lfoot -43.7601 18.8027
ltoes -19.8815
950
root -2.49479 14.6995 -34.2374 -320.611 47.4467 20.0871
lowerback -20.2256 -10.817 0.509262
upperback -13.3208 -13.8304 0.24986
thorax -3.56451 -6.89856 -2.26519
lowerneck -4.68923 -7.33695 -8.50144
upperneck 19.9773 -9.88083 4.02913
head 7.54058 -5.01484 1.89721
rclavicle -1.15991e-013 -8.0309e-014
rhumerus -61.662 -46.1998 -12.8252
rradius 18.2084
rwrist 8.37839
rhand -26.9049 24.8414
rfingers 7.12502
rthumb -0.328195 -5.13805
lclavicle -1.15991e-013 -8.0309e-014
lhumerus -12.1486 0.319919 82.8839
lradius 32.896
lwrist -31.0804
lhand -13.3753 10.6847
lfingers 7.12502
lthumb 12.7314 40.2766
rfemur -95.1288 -36.8884 401.922
rtibia 64.9009
rfoot 141.504 144.029
rtoes 39.2516
lfemur -18.3077 -12.6342 -28.6238
ltibia 35.1126
lfoot -43.237 19.8819
ltoes -22.0049
951
root -2.48818 14.7078 -34.2374 -320.817 47.5835 20.0663
lowerback -20.2799 -10.926 0.380586
upperback -12.8384 -13.9705 0.49447
thorax -2.90346 -6.94757 -2.05374
lowerneck -6.03986 -7.50376 -8.64785
upperneck 20.0345 -9.9932 4.0614
head 7.81832 -5.05312 1.86431
rclavicle -1.55052e-014 -1.27222e-014
rhumerus -61.3091 -47.4236 -14.1916
rradius 18.094
rwrist 8.03677
rhand -26.6561 24.737
rfingers 7.12502
rthumb -0.087893 -5.2427
lclavicle -1.55052e-014 -1.27222e-014
lhumerus -12.8622 1.41084 83.5892
lradius 31.5918
lwrist -31.2933
lhand -12.5697 12.35
lfingers 7.12502
lthumb 13.5079 41.8919
rfemur -94.7274 -37.0408 401.753
rtibia 64.8154
rfoot 141.448 144.095
rtoes 39.4201
lfemur -18.0076 -12.6018 -28.586
ltibia 35.0099
lfoot -43.0328 20.136
ltoes -22.8154
952
root -2.48249 14.7179 -34.227 -321.145 47.6861 19.9332
lowerback -20.4364 -10.7385 0.0168028
upperback -12.8122 -13.6463 0.223769
thorax -2.77117 -6.765 -2.12863
lowerneck -3.98043 -7.7763 -8.16524
upperneck 19.1029 -10.5868 4.23266
head 7.16764 -5.3245 1.88228
rclavicle -1.5207e-014 2.78299e-014
rhumerus -62.0139 -46.3514 -15.8523
rradius 18.4031
rwrist 5.88094
rhand -26.3125 24.275
rfingers 7.12502
rthumb 0.243965 -5.70461
lclavicle -1.5207e-014 2.78299e-014
lhumerus -14.7777 1.37085 84.1966
lradius 30.1805
lwrist -31.9728
lhand -11.6465 13.3528
lfingers 7.12502
lthumb 14.3976 42.8334
rfemur -94.264 -37.1512 401.634
rtibia 64.7988
rfoot 141.251 144.145
rtoes 39.1944
lfemur -17.4623 -12.3698 -28.4687
ltibia 34.5771
lfoot -43.1985 19.5337
ltoes -21.7614
953
root -2.48046 14.754 -34.1883 -321.69 47.7123 20.0561
lowerback -20.2054 -11.0269 -0.425916
upperback -11.9998 -13.9961 0.487889
thorax -1.81658 -6.90697 -1.77134
lowerneck -6.7379 -7.88251 -8.41248
upperneck 19.7771 -10.5479 4.36212
head 7.89776 -5.26087 1.84081
rclavicle -1.3905e-013 -3.81667e-014
rhumerus -60.9089 -48.0444 -17.87
rradius 18.0951
rwrist 6.02336
rhand -25.8701 23.9845
rfingers 7.12502
rthumb 0.671186 -5.99416
lclavicle -1.3905e-013 -3.81667e-014
lhumerus -14.9032 3.40379 84.5035
lradius 28.6444
lwrist -33.2454
lhand -10.9495 13.3202
lfingers 7.12502
lthumb 15.0691 42.7518
rfemur -93.0046 -37.4084 400.808
rtibia 64.7695
rfoot 140.67 144.245
rtoes 39.2772
lfemur -16.36 -11.8205 -28.5433
ltibia 34.0389
lfoot -42.9697 19.1266
ltoes -21.8863
954
root -2.47887 14.7634 -34.1768 -321.745 47.6044 20.199
lowerback -19.9285 -11.0767 -0.582441
upperback -12.0772 -14.0459 0.455164
thorax -2.01142 -6.92734 -1.67421
lowerneck -6.69762 -7.9735 -8.44991
upperneck 19.8518 -10.7065 4.50177
head 7.93632 -5.32741 1.8757
rclavicle 4.24405e-014 -1.11319e-014
rhumerus -61.3857 -48.3443 -18.6212
rradius 17.8622
rwrist 6.38569
rhand -25.0015 23.7884
rfingers 7.12502
rthumb 1.51008 -6.18605
lclavicle 4.24405e-014 -1.11319e-014
lhumerus -16.7396 4.04311 84.8012
lradius 27.7166
lwrist -32.6597
lhand -9.91818 14.155
lfingers 7.12502
lthumb 16.0624 43.5093
rfemur -92.6267 -37.3728 400.338
rtibia 64.7762
rfoot 140.502 144.233
rtoes 39.5076
lfemur -16.0455 -11.4292 -28.6754
ltibia 33.5689
lfoot -42.02 20.1145
ltoes -24.3106
955
root -2.46681 14.7564 -34.2227 -321.204 47.663 20.1794
lowerback -20.0563 -10.6404 -0.028403
upperback -12.7179 -13.5291 -0.0108916
thorax -2.8971 -6.71542 -2.26607
lowerneck -4.22075 -8.32233 -7.95215
upperneck 19.1331 -11.4365 4.66277
head 7.28814 -5.67805 1.89456
rclavicle 3.96575e-014 -2.38542e-015
rhumerus -63.0661 -47.2298 -19.0638
rradius 18.0464
rwrist 5.38398
rhand -24.1383 23.023
rfingers 7.12502
rthumb 2.34376 -6.94387
lclavicle 3.96575e-014 -2.38542e-015
lhumerus -19.2437 4.2808 84.856
lradius 25.9215
lwrist -32.9869
lhand -9.48695 13.2253
lfingers 7.12502
lthumb 16.4777 42.5456
rfemur -93.6264 -37.321 400.996
rtibia 64.6545
rfoot 141.119 144.135
rtoes 39.4509
lfemur -16.4981 -11.6983 -28.6534
ltibia 33.3323
lfoot -42.6846 18.3672
ltoes -20.588
956
root -2.4599 14.7704 -34.2115 -321.516 47.9579 20.2405
lowerback -19.9069 -10.7409 -0.48629
upperback -12.4038 -13.5993 0.167746
thorax -2.46907 -6.71298 -1.88666
lowerneck -4.38628 -8.60481 -8.02374
upperneck 18.8971 -11.8042 4.70324
head 7.27296 -5.85308 1.87788
rclavicle 9.35282e-014 2.06736e-014
rhumerus -62.9127 -47.7779 -20.1503
rradius 17.9663
rwrist 5.19865
rhand -23.6799 21.9457
rfingers 7.12502
rthumb 2.78646 -8.01586
lclavicle 9.35282e-014 2.06736e-014
lhumerus -20.2857 4.67125 85.5158
lradius 24.7937
lwrist -32.4948
lhand -8.04734 14.8252
lfingers 7.12502
lthumb 17.8633 44.0248
rfemur -93.0477 -37.7248 400.796
rtibia 64.5913
rfoot 141.008 144.153
rtoes 39.5196
lfemur -16.2263 -11.3449 -28.5515
ltibia 33.4818
lfoot -42.1285 18.9516
ltoes -22.8997
957
root -2.45106 14.7665 -34.2364 -321.38 48.0635 20.1346
lowerback -20.2239 -10.6474 -0.399698
upperback -12.3411 -13.477 0.242118
thorax -2.23981 -6.64973 -1.89983
lowerneck -3.95341 -8.74243 -8.09526
upperneck 18.4174 -12.0337 4.92307
head 7.07498 -5.96186 1.96433
rclavicle -2.6339e-014 3.97569e-015
rhumerus -63.2514 -48.4019 -20.7229
rradius 17.7409
rwrist 5.68804
rhand -23.083 21.2119
rfingers 7.12502
rthumb 3.36295 -8.74132
lclavicle -2.6339e-014 3.97569e-015
lhumerus -21.7618 4.8797 85.963
lradius 23.9984
lwrist -32.2717
lhand -6.68838 15.4727
lfingers 7.12502
lthumb 19.1705 44.5479
rfemur -93.4136 -37.7576 401.171
rtibia 64.4396
rfoot 141.282 144.143
rtoes 39.588
lfemur -16.5706 -11.5151 -28.4569
ltibia 33.943
lfoot -43.1117 17.2441
ltoes -19.9478
